HIERARCHY
ROOT hip
{
  OFFSET 55.9141 150.688 -64.7739
  CHANNELS 6 Xposition Yposition Zposition Zrotation Xrotation Yrotation
  JOINT abdomen
  {
    OFFSET 0 20.6881 -0.73152
    CHANNELS 3 Zrotation Xrotation Yrotation
    JOINT chest
    {
      OFFSET 0 11.7043 -0.48768
      CHANNELS 3 Zrotation Xrotation Yrotation
      JOINT neck
      {
        OFFSET 0 22.1894 -2.19456
        CHANNELS 3 Zrotation Xrotation Yrotation
        JOINT head
        {
          OFFSET -0.24384 7.07133 1.2192
          CHANNELS 3 Zrotation Xrotation Yrotation
          JOINT leftEye
          {
            OFFSET 4.14528 8.04674 8.04672
            CHANNELS 3 Zrotation Xrotation Yrotation
            End Site
            {
              OFFSET 1 0 0
            }
          }
          JOINT rightEye
          {
            OFFSET -3.6576 8.04674 8.04672
            CHANNELS 3 Zrotation Xrotation Yrotation
            End Site
            {
              OFFSET 1 0 0
            }
          }
        }
      }
      JOINT rCollar
      {
        OFFSET -2.68224 19.2634 -4.8768
        CHANNELS 3 Zrotation Xrotation Yrotation
        JOINT rShldr
        {
          OFFSET -8.77824 -1.95073 1.46304
          CHANNELS 3 Zrotation Xrotation Yrotation
          JOINT rForeArm
          {
            OFFSET -28.1742 -1.7115 0.48768
            CHANNELS 3 Zrotation Xrotation Yrotation
            JOINT rHand
            {
              OFFSET -22.5879 0.773209 7.07136
              CHANNELS 3 Zrotation Xrotation Yrotation
              JOINT rThumb1
              {
                OFFSET -1.2192 -0.487915 3.41376
                CHANNELS 3 Zrotation Xrotation Yrotation
                JOINT rThumb2
                {
                  OFFSET -3.37035 -0.52449 3.41376
                  CHANNELS 3 Zrotation Xrotation Yrotation
                  End Site
                  {
                    OFFSET -1.78271 -1.18214 1.43049
                  }
                }
              }
              JOINT rIndex1
              {
                OFFSET -7.75947 0.938293 5.60832
                CHANNELS 3 Zrotation Xrotation Yrotation
                JOINT rIndex2
                {
                  OFFSET -2.54057 -0.884171 1.56538
                  CHANNELS 3 Zrotation Xrotation Yrotation
                  End Site
                  {
                    OFFSET -1.62519 -0.234802 1.16502
                  }
                }
              }
              JOINT rMid1
              {
                OFFSET -8.24714 1.18213 3.41376
                CHANNELS 3 Zrotation Xrotation Yrotation
                JOINT rMid2
                {
                  OFFSET -3.10165 -0.590103 1.0647
                  CHANNELS 3 Zrotation Xrotation Yrotation
                  End Site
                  {
                    OFFSET -2.48547 -0.328903 0.83742
                  }
                }
              }
              JOINT rRing1
              {
                OFFSET -8.82822 0.546677 1.51678
                CHANNELS 3 Zrotation Xrotation Yrotation
                JOINT rRing2
                {
                  OFFSET -2.60934 -0.819778 -0.0198488
                  CHANNELS 3 Zrotation Xrotation Yrotation
                  End Site
                  {
                    OFFSET -2.33842 -0.294052 0.168128
                  }
                }
              }
              JOINT rPinky1
              {
                OFFSET -8.27202 -0.0477905 -0.4584
                CHANNELS 3 Zrotation Xrotation Yrotation
                JOINT rPinky2
                {
                  OFFSET -1.82734 -0.647385 -0.700984
                  CHANNELS 3 Zrotation Xrotation Yrotation
                  End Site
                  {
                    OFFSET -1.69225 -0.51767 -0.607171
                  }
                }
              }
            }
          }
        }
      }
      JOINT lCollar
      {
        OFFSET 2.68224 19.2634 -4.8768
        CHANNELS 3 Zrotation Xrotation Yrotation
        JOINT lShldr
        {
          OFFSET 8.77824 -1.95073 1.46304
          CHANNELS 3 Zrotation Xrotation Yrotation
          JOINT lForeArm
          {
            OFFSET 28.1742 -1.7115 0.48768
            CHANNELS 3 Zrotation Xrotation Yrotation
            JOINT lHand
            {
              OFFSET 22.5879 0.773209 7.07136
              CHANNELS 3 Zrotation Xrotation Yrotation
              JOINT lThumb1
              {
                OFFSET 1.2192 -0.487915 3.41376
                CHANNELS 3 Zrotation Xrotation Yrotation
                JOINT lThumb2
                {
                  OFFSET 3.37035 -0.52449 3.41376
                  CHANNELS 3 Zrotation Xrotation Yrotation
                  End Site
                  {
                    OFFSET 1.78271 -1.18214 1.43049
                  }
                }
              }
              JOINT lIndex1
              {
                OFFSET 7.75947 0.938293 5.60832
                CHANNELS 3 Zrotation Xrotation Yrotation
                JOINT lIndex2
                {
                  OFFSET 2.54057 -0.884171 1.56538
                  CHANNELS 3 Zrotation Xrotation Yrotation
                  End Site
                  {
                    OFFSET 1.62519 -0.234802 1.16502
                  }
                }
              }
              JOINT lMid1
              {
                OFFSET 8.24714 1.18213 3.41376
                CHANNELS 3 Zrotation Xrotation Yrotation
                JOINT lMid2
                {
                  OFFSET 3.10165 -0.590103 1.0647
                  CHANNELS 3 Zrotation Xrotation Yrotation
                  End Site
                  {
                    OFFSET 2.48547 -0.328903 0.83742
                  }
                }
              }
              JOINT lRing1
              {
                OFFSET 8.82822 0.546677 1.51678
                CHANNELS 3 Zrotation Xrotation Yrotation
                JOINT lRing2
                {
                  OFFSET 2.60934 -0.819778 -0.0198488
                  CHANNELS 3 Zrotation Xrotation Yrotation
                  End Site
                  {
                    OFFSET 2.33842 -0.294052 0.168128
                  }
                }
              }
              JOINT lPinky1
              {
                OFFSET 8.27202 -0.0477905 -0.4584
                CHANNELS 3 Zrotation Xrotation Yrotation
                JOINT lPinky2
                {
                  OFFSET 1.82734 -0.647385 -0.700984
                  CHANNELS 3 Zrotation Xrotation Yrotation
                  End Site
                  {
                    OFFSET 1.69225 -0.51767 -0.607171
                  }
                }
              }
            }
          }
        }
      }
    }
  }
  JOINT rButtock
  {
    OFFSET -8.77824 4.35084 1.2192
    CHANNELS 3 Zrotation Xrotation Yrotation
    JOINT rThigh
    {
      OFFSET 0 -1.70687 -2.19456
      CHANNELS 3 Zrotation Xrotation Yrotation
      JOINT rShin
      {
        OFFSET 0 -36.8199 0.73152
        CHANNELS 3 Zrotation Xrotation Yrotation
        JOINT rFoot
        {
          OFFSET 0.73152 -45.1104 -5.12064
          CHANNELS 3 Zrotation Xrotation Yrotation
          End Site
          {
            OFFSET -1.1221 -3.69964 12.103
          }
        }
      }
    }
  }
  JOINT lButtock
  {
    OFFSET 8.77824 4.35084 1.2192
    CHANNELS 3 Zrotation Xrotation Yrotation
    JOINT lThigh
    {
      OFFSET 0 -1.70687 -2.19456
      CHANNELS 3 Zrotation Xrotation Yrotation
      JOINT lShin
      {
        OFFSET 0 -36.8199 0.73152
        CHANNELS 3 Zrotation Xrotation Yrotation
        JOINT lFoot
        {
          OFFSET -0.73152 -45.1104 -5.12064
          CHANNELS 3 Zrotation Xrotation Yrotation
          End Site
          {
            OFFSET 1.1221 -3.69964 12.103
          }
        }
      }
    }
  }
}
MOTION
Frames:	4
Frame Time:	0.00833333
41.4632 85.5886 221.653 -2.0696 0.00896569 0.0395093 2.72258 0.000518376 0.07362 0.750832 0.0131642 0.129928 2.95878e-014 -1.59028e-015 4.47266e-016 8.92108e-014 -6.36111e-015 1.24396e-015 -0 0 0 -0 0 0 1.48087e-014 9.31803e-018 4.47265e-016 3.12951e-013 1.86361e-017 5.76476e-015 5.3651e-012 -1.59286e-012 3.49861e-014 6.12314e-011 1.63033e-012 8.46028e-013 1.44472e-010 8.19671e-014 1.90515e-012 2.49497e-010 1.36764e-013 3.28313e-012 1.44479e-010 8.42847e-014 1.89879e-012 7.73091 5.47488 0.417314 1.44473e-010 8.20981e-014 1.91469e-012 2.90554 0.965183 0.102902 1.4448e-010 8.21975e-014 1.90595e-012 10.2786 0.731801 0.0259123 1.44471e-010 8.34896e-014 1.90833e-012 2.22167 -0.733487 -0.20892 1.47118e-014 1.00945e-017 -4.96962e-017 3.09027e-013 -2.98177e-016 3.97569e-015 5.33548e-012 1.61234e-012 1.59028e-014 6.127e-011 -1.5868e-012 8.77833e-013 1.44493e-010 6.01261e-014 1.90515e-012 2.49538e-010 1.01778e-013 3.29505e-012 1.44486e-010 6.36111e-014 1.91469e-012 -7.73091 5.47488 -0.417314 1.44494e-010 5.99336e-014 1.90515e-012 -2.90554 0.965183 -0.102902 1.44488e-010 6.03311e-014 1.90833e-012 -10.2786 0.731801 -0.0259123 1.44496e-010 6.16232e-014 1.90515e-012 -2.22167 -0.733487 0.20892 -2.03217e-016 0 -3.88251e-019 2.5331 -8.65197 -0.274481 0.00739432 10.0933 0.18951 -0.517019 -1.45221 0.0286292 2.03217e-016 0 3.88251e-019 1.60801 -1.93183 -0.00953501 0.00859853 -2.07865 0.0706267 0.458715 3.99948 -0.132454 
42.8959 84.6806 213.624 0.26767 1.78051 -48.569 0.958426 -1.75972 1.05501 2.33663 1.52221 0.340054 -1.08105 2.54013 -0.0150969 2.50313 2.25184 -1.5413 -0 0 0 -0 0 0 -5.94925e-016 -2.74758e-014 1.97096e-014 23.3688 -3.24457 -3.44584 -3.49149 -1.46488 5.57823 0.0367504 4.25497 0.592057 2.89643e-010 1.47492e-010 1.65839e-010 5.02447e-010 2.55161e-010 2.83733e-010 2.89648e-010 1.47494e-010 1.65833e-010 7.73091 5.47488 0.417314 2.89644e-010 1.47492e-010 1.65846e-010 2.90554 0.965183 0.102902 2.89652e-010 1.47492e-010 1.6584e-010 10.2786 0.731801 0.0259123 2.89643e-010 1.47493e-010 1.65841e-010 2.22167 -0.733487 -0.20892 -7.22073e-016 -2.74745e-014 1.93349e-014 -22.6375 5.4448 -1.02178 2.62677 -0.990204 -4.29715 -0.117681 7.62326 -1.03746 2.13852e-010 1.25489e-010 2.18672e-010 3.74529e-010 2.18017e-010 3.75681e-010 2.13844e-010 1.25491e-010 2.18682e-010 -7.73091 5.47488 -0.417314 2.13853e-010 1.25489e-010 2.18673e-010 -2.90554 0.965183 -0.102902 2.13846e-010 1.25489e-010 2.18675e-010 -10.2786 0.731801 -0.0259123 2.13855e-010 1.25491e-010 2.18671e-010 -2.22167 -0.733487 0.20892 -2.03217e-016 0 -3.88251e-019 2.24396 -9.96893 0.356139 0.00311416 11.7164 0.21972 -0.564286 -4.90092 -0.592943 2.03217e-016 0 3.88251e-019 1.13391 -3.54646 -2.18422 0.0063832 0.210788 0.00817688 0.564132 0.0904702 1.25069 
42.8985 84.6778 213.629 4.02776 -0.946954 -99.8451 -0.839228 -3.61496 2.09767 4.00074 3.11477 0.563456 -2.22164 5.22183 -0.0327547 5.27638 4.62635 -3.17963 -0 0 0 -0 0 0 -1.76005e-014 -5.68496e-014 4.00272e-014 47.6409 -6.63774 -7.12605 -6.87412 -2.96728 11.4871 -0.0210067 8.74445 1.2279 4.59683e-010 3.06299e-010 3.46194e-010 7.9857e-010 5.29882e-010 5.92166e-010 4.59687e-010 3.063e-010 3.46188e-010 7.73091 5.47488 0.417314 4.59684e-010 3.06299e-010 3.46198e-010 2.90554 0.965183 0.102902 4.59692e-010 3.06299e-010 3.46194e-010 10.2786 0.731801 0.0259123 4.59684e-010 3.06301e-010 3.46195e-010 2.22167 -0.733487 -0.20892 -1.77595e-014 -5.68477e-014 3.97818e-014 -46.3484 11.2095 -2.14265 5.24728 -2.02088 -8.85161 0.0684767 15.6582 -2.19492 2.96926e-010 2.69863e-010 4.69664e-010 5.24022e-010 4.6884e-010 8.06842e-010 2.96919e-010 2.69864e-010 4.69674e-010 -7.73091 5.47488 -0.417314 2.96928e-010 2.69863e-010 4.69666e-010 -2.90554 0.965183 -0.102902 2.96919e-010 2.69865e-010 4.69667e-010 -10.2786 0.731801 -0.0259123 2.96929e-010 2.69867e-010 4.69662e-010 -2.22167 -0.733487 0.20892 -2.03217e-016 0 -3.88251e-019 1.97618 -11.3583 1.03303 -0.00335073 13.4317 0.252246 -0.696765 -8.54536 -1.26254 2.03217e-016 0 3.88251e-019 0.504936 -5.24184 -4.49082 0.0094824 2.63152 -0.0578483 0.88069 -4.03718 2.71712 
42.9103 84.6746 213.623 3.4518 -6.64326 -145.427 -2.38841 -5.27375 3.02913 5.47493 4.53997 0.762338 -3.23911 7.62039 -0.0456493 7.87455 6.73591 -4.65251 -0 0 0 -0 0 0 -3.14021e-014 -8.24459e-014 5.82342e-014 68.9285 -9.59201 -10.4689 -9.63033 -4.2283 16.7762 -0.159196 12.7594 1.81614 5.79986e-010 4.42311e-010 4.93707e-010 1.00835e-009 7.65209e-010 8.44634e-010 5.79988e-010 4.42312e-010 4.93701e-010 7.73091 5.47488 0.417314 5.79986e-010 4.42311e-010 4.93709e-010 2.90554 0.965183 0.102902 5.79995e-010 4.42312e-010 4.93707e-010 10.2786 0.731801 0.0259123 5.79987e-010 4.42313e-010 4.93707e-010 2.22167 -0.733487 -0.20892 -3.15899e-014 -8.24437e-014 5.81041e-014 -67.3095 16.3132 -3.17964 7.43843 -2.90385 -12.9064 0.534595 22.8385 -3.34758 3.52568e-010 3.76345e-010 6.52206e-010 6.24511e-010 6.53847e-010 1.12045e-009 3.52562e-010 3.76346e-010 6.52217e-010 -7.73091 5.47488 -0.417314 3.52571e-010 3.76346e-010 6.52209e-010 -2.90554 0.965183 -0.102902 3.52561e-010 3.76348e-010 6.52209e-010 -10.2786 0.731801 -0.0259123 3.52572e-010 3.76351e-010 6.52203e-010 -2.22167 -0.733487 0.20892 -2.03217e-016 0 -3.88251e-019 1.75471 -12.5982 1.63436 -0.0107807 14.9626 0.281829 -0.887509 -11.793 -1.86903 2.03217e-016 0 3.88251e-019 -0.183369 -6.73935 -6.56662 0.0169388 4.78966 -0.117039 1.3439 -7.70841 4.053 
